# Blender 3.4.1
# www.blender.org
mtllib Fork.mtl
o Fork
v -1.000000 -0.970145 3.873011
v -1.000000 -0.881268 3.869060
v -1.000000 -0.970145 1.873011
v -1.000000 -0.728298 1.874919
v 1.000000 -0.970145 3.873011
v 1.000000 -0.881268 3.869060
v 1.000000 -0.970145 1.873011
v 1.000000 -0.728298 1.874919
v 0.000000 -0.970145 1.873011
v 0.000000 -0.728298 1.874919
v 0.000000 -0.970145 2.245665
v 0.000000 -0.756801 2.246481
v -0.500000 -0.970145 1.873011
v -0.624318 -0.756801 2.246481
v -0.500000 -0.728298 1.874919
v -0.624318 -0.970145 2.245665
v 0.500000 -0.728298 1.874919
v 0.624318 -0.970145 2.245665
v 0.500000 -0.970145 1.873011
v 0.624318 -0.756801 2.246481
v 0.750000 -0.728298 1.874919
v 0.750000 -0.970145 3.873011
v 0.750000 -0.970145 1.873011
v 0.750000 -0.881268 3.869060
v -0.750000 -0.970145 1.873011
v -0.750000 -0.881268 3.869060
v -0.750000 -0.728298 1.874919
v -0.750000 -0.970145 3.873011
vn -1.0000 -0.0000 -0.0000
vn -0.0000 0.0079 -1.0000
vn 1.0000 -0.0000 -0.0000
vn -0.0000 0.0444 0.9990
vn -0.0000 -1.0000 -0.0000
vn -0.0000 0.9971 0.0765
vn -0.0000 -0.0038 1.0000
vn -0.9970 0.0008 0.0771
vn 0.9970 0.0008 0.0771
vt 0.375000 0.000000
vt 0.375000 1.000000
vt 0.125000 0.750000
vt 0.625000 0.000000
vt 0.625000 1.000000
vt 0.875000 0.750000
vt 0.125000 0.500000
vt 0.375000 0.250000
vt 0.875000 0.500000
vt 0.625000 0.250000
vt 0.375000 0.750000
vt 0.625000 0.750000
vt 0.375000 0.500000
vt 0.625000 0.500000
vt 0.250000 0.500000
vt 0.375000 0.375000
vt 0.750000 0.500000
vt 0.625000 0.375000
vt 0.375000 0.875000
vt 0.250000 0.750000
vt 0.750000 0.750000
vt 0.625000 0.875000
vt 0.375000 0.312500
vt 0.187500 0.500000
vt 0.812500 0.750000
vt 0.625000 0.937500
vt 0.625000 0.312500
vt 0.812500 0.500000
vt 0.187500 0.750000
vt 0.375000 0.937500
vt 0.687500 0.500000
vt 0.625000 0.437500
vt 0.375000 0.812500
vt 0.312500 0.750000
vt 0.312500 0.500000
vt 0.375000 0.437500
vt 0.625000 0.812500
vt 0.687500 0.750000
vt 0.656250 0.500000
vt 0.625000 0.468750
vt 0.375000 0.781250
vt 0.343750 0.750000
vt 0.343750 0.500000
vt 0.375000 0.468750
vt 0.656250 0.750000
vt 0.625000 0.781250
vt 0.156250 0.500000
vt 0.375000 0.281250
vt 0.843750 0.750000
vt 0.625000 0.968750
vt 0.625000 0.281250
vt 0.843750 0.500000
vt 0.156250 0.750000
vt 0.375000 0.968750
s 0
f 1/1/1 2/4/1 4/10/1 3/8/1
f 23/44/2 21/40/2 8/14/2 7/13/2
f 7/13/3 8/14/3 6/12/3 5/11/3
f 28/54/4 26/50/4 2/5/4 1/2/4
f 23/43/5 7/13/5 5/11/5 22/42/5
f 27/52/6 4/9/6 2/6/6 26/49/6
f 17/31/6 10/17/6 12/21/6 20/38/6
f 13/24/5 9/15/5 11/20/5 16/29/5
f 18/33/7 20/37/7 12/22/7 11/19/7
f 13/23/2 15/27/2 10/18/2 9/16/2
f 25/48/2 27/51/2 15/27/2 13/23/2
f 25/47/5 13/24/5 16/29/5 28/53/5
f 10/17/6 15/28/6 14/25/6 12/21/6
f 11/19/7 12/22/7 14/26/7 16/30/7
f 22/41/8 24/46/8 20/37/8 18/33/8
f 21/39/6 17/31/6 20/38/6 24/45/6
f 9/15/5 19/35/5 18/34/5 11/20/5
f 9/16/2 10/18/2 17/32/2 19/36/2
f 8/14/6 21/39/6 24/45/6 6/12/6
f 5/11/4 6/12/4 24/46/4 22/41/4
f 19/35/5 23/43/5 22/42/5 18/34/5
f 19/36/2 17/32/2 21/40/2 23/44/2
f 3/7/5 25/47/5 28/53/5 1/3/5
f 3/8/2 4/10/2 27/51/2 25/48/2
f 15/28/6 27/52/6 26/49/6 14/25/6
f 16/30/9 14/26/9 26/50/9 28/54/9
